<svg width="144" height="56" viewBox="0 0 144 56" fill="none" xmlns="http://www.w3.org/2000/svg">
<rect y="2" width="53.7536" height="53.7536" rx="26.8768" fill="#F54748"/>
<path d="M78.6312 22.6235V17.9924H61V41.1478H66.0942V32.1833H77.1426V27.5523H66.0942V22.6235H78.6312Z" fill="#302F3C"/>
<path d="M100.505 32.3157V32.2495C100.505 30.9704 100.262 29.7796 99.7771 28.6769C99.2919 27.5523 98.6193 26.5819 97.7592 25.766C96.9212 24.928 95.9178 24.2774 94.749 23.8143C93.5802 23.3291 92.3122 23.0866 90.9449 23.0866C89.5556 23.0866 88.2765 23.3291 87.1077 23.8143C85.9389 24.2995 84.9245 24.9611 84.0645 25.7991C83.2044 26.6371 82.5318 27.6184 82.0466 28.7431C81.5615 29.8457 81.3189 31.0366 81.3189 32.3157V32.3818C81.3189 33.6609 81.5615 34.8628 82.0466 35.9874C82.5318 37.0901 83.1934 38.0604 84.0314 38.8984C84.8914 39.7144 85.9058 40.3649 87.0746 40.8501C88.2434 41.3132 89.5115 41.5447 90.8788 41.5447C92.2681 41.5447 93.5471 41.3022 94.7159 40.817C95.8847 40.3318 96.8992 39.6703 97.7592 38.8323C98.6193 37.9942 99.2919 37.0239 99.7771 35.9213C100.262 34.7966 100.505 33.5947 100.505 32.3157ZM95.5429 32.3818C95.5429 33.0434 95.4327 33.6719 95.2121 34.2673C95.0137 34.8407 94.7159 35.3479 94.319 35.789C93.922 36.23 93.4369 36.5829 92.8635 36.8475C92.3122 37.0901 91.6727 37.2114 90.9449 37.2114C90.2392 37.2114 89.5997 37.0791 89.0263 36.8144C88.475 36.5498 87.9898 36.1969 87.5708 35.7559C87.1518 35.2928 86.8321 34.7745 86.6115 34.2012C86.391 33.6057 86.2808 32.9772 86.2808 32.3157V32.2495C86.2808 31.5879 86.38 30.9704 86.5785 30.3971C86.799 29.8016 87.1077 29.2834 87.5047 28.8423C87.9016 28.4013 88.3758 28.0595 88.9271 27.8169C89.5005 27.5523 90.151 27.4199 90.8788 27.4199C91.5624 27.4199 92.1909 27.5523 92.7643 27.8169C93.3376 28.0815 93.8338 28.4454 94.2528 28.9085C94.6718 29.3496 94.9916 29.8678 95.2121 30.4632C95.4327 31.0366 95.5429 31.6541 95.5429 32.3157V32.3818Z" fill="#302F3C"/>
<path d="M122.471 32.3157V32.2495C122.471 30.9704 122.229 29.7796 121.744 28.6769C121.259 27.5523 120.586 26.5819 119.726 25.766C118.888 24.928 117.884 24.2774 116.716 23.8143C115.547 23.3291 114.279 23.0866 112.912 23.0866C111.522 23.0866 110.243 23.3291 109.074 23.8143C107.906 24.2995 106.891 24.9611 106.031 25.7991C105.171 26.6371 104.498 27.6184 104.013 28.7431C103.528 29.8457 103.286 31.0366 103.286 32.3157V32.3818C103.286 33.6609 103.528 34.8628 104.013 35.9874C104.498 37.0901 105.16 38.0604 105.998 38.8984C106.858 39.7144 107.872 40.3649 109.041 40.8501C110.21 41.3132 111.478 41.5447 112.845 41.5447C114.235 41.5447 115.514 41.3022 116.683 40.817C117.851 40.3318 118.866 39.6703 119.726 38.8323C120.586 37.9942 121.259 37.0239 121.744 35.9213C122.229 34.7966 122.471 33.5947 122.471 32.3157ZM117.51 32.3818C117.51 33.0434 117.399 33.6719 117.179 34.2673C116.98 34.8407 116.683 35.3479 116.286 35.789C115.889 36.23 115.404 36.5829 114.83 36.8475C114.279 37.0901 113.639 37.2114 112.912 37.2114C112.206 37.2114 111.566 37.0791 110.993 36.8144C110.442 36.5498 109.956 36.1969 109.537 35.7559C109.118 35.2928 108.799 34.7745 108.578 34.2012C108.358 33.6057 108.247 32.9772 108.247 32.3157V32.2495C108.247 31.5879 108.347 30.9704 108.545 30.3971C108.766 29.8016 109.074 29.2834 109.471 28.8423C109.868 28.4013 110.342 28.0595 110.894 27.8169C111.467 27.5523 112.118 27.4199 112.845 27.4199C113.529 27.4199 114.158 27.5523 114.731 27.8169C115.304 28.0815 115.8 28.4454 116.219 28.9085C116.638 29.3496 116.958 29.8678 117.179 30.4632C117.399 31.0366 117.51 31.6541 117.51 32.3157V32.3818Z" fill="#302F3C"/>
<path d="M143.942 41.1478V17H138.914V25.7329C138.318 25.0272 137.58 24.4097 136.698 23.8805C135.837 23.3512 134.735 23.0866 133.39 23.0866C132.331 23.0866 131.317 23.285 130.346 23.682C129.376 24.0789 128.516 24.6744 127.766 25.4683C127.038 26.2401 126.443 27.1994 125.98 28.3462C125.539 29.4708 125.318 30.772 125.318 32.2495V32.3157C125.318 33.7932 125.539 35.1053 125.98 36.2521C126.443 37.3768 127.049 38.3361 127.799 39.13C128.549 39.9018 129.409 40.4862 130.379 40.8832C131.35 41.2801 132.353 41.4786 133.39 41.4786C134.713 41.4786 135.804 41.214 136.664 40.6847C137.547 40.1334 138.296 39.4387 138.914 38.6007V41.1478H143.942ZM138.98 32.3157C138.98 33.0434 138.859 33.716 138.616 34.3335C138.396 34.9289 138.087 35.4471 137.69 35.8882C137.315 36.3072 136.863 36.638 136.334 36.8806C135.826 37.1011 135.275 37.2114 134.68 37.2114C134.084 37.2114 133.522 37.1011 132.993 36.8806C132.485 36.638 132.033 36.3072 131.636 35.8882C131.239 35.4471 130.92 34.9289 130.677 34.3335C130.457 33.716 130.346 33.0434 130.346 32.3157V32.2495C130.346 31.4997 130.457 30.8271 130.677 30.2317C130.92 29.6362 131.239 29.129 131.636 28.71C132.033 28.269 132.485 27.9382 132.993 27.7177C133.522 27.4751 134.084 27.3538 134.68 27.3538C135.275 27.3538 135.826 27.4751 136.334 27.7177C136.863 27.9382 137.315 28.269 137.69 28.71C138.087 29.129 138.396 29.6473 138.616 30.2647C138.859 30.8602 138.98 31.5218 138.98 32.2495V32.3157Z" fill="#302F3C"/>
<path d="M17.9592 18.0059C19.8273 18.0059 21.3014 18.3885 22.3818 19.1538C23.4621 19.8965 24.0022 20.9543 24.0022 22.3272C24.0022 23.1825 23.7659 23.9477 23.2933 24.6229C22.8431 25.2981 22.2467 25.9283 21.504 26.5134C20.7613 27.0761 19.9623 27.605 19.107 28.1002C18.2518 28.5953 17.419 29.0792 16.6088 29.5518C15.8211 30.0245 15.1346 30.5196 14.5494 31.0373H22.1792C23.102 31.0373 23.6871 30.936 23.9347 30.7334C24.1823 30.5309 24.3511 30.1708 24.4411 29.6531H25.2176C25.2176 31.3636 25.2289 32.7028 25.2514 33.6706C25.2739 34.6158 25.3076 35.4486 25.3526 36.1688C25.1501 36.1238 24.7787 36.09 24.2386 36.0675C23.6984 36.045 23.0795 36.0225 22.3818 36C21.6841 36 20.9976 36 20.3224 36H9.21536V35.291C9.82304 34.6834 10.577 33.9857 11.4773 33.1979C12.4001 32.4102 13.3003 31.5324 14.1781 30.5646C15.0783 29.5743 15.8323 28.5053 16.44 27.3574C17.0477 26.2096 17.3515 24.983 17.3515 23.6776C17.3515 22.5298 17.1039 21.697 16.6088 21.1794C16.1137 20.6392 15.3597 20.3691 14.3469 20.3691C13.3566 20.3691 12.5013 20.5717 11.7811 20.9768C11.0609 21.3594 10.4082 21.9108 9.82304 22.631L9.24912 22.2259C9.78928 21.4382 10.4307 20.7292 11.1734 20.099C11.9387 19.4463 12.8727 18.9399 13.9755 18.5798C15.0783 18.1972 16.4062 18.0059 17.9592 18.0059ZM40.4006 18.0059L40.5357 18.8837L29.3274 32.4552L30.1038 30.9022H41.1434C42.0661 30.9022 42.6513 30.801 42.8989 30.5984C43.1464 30.3958 43.3152 30.0357 43.4053 29.5181H44.1818C44.1818 31.0485 44.193 32.2414 44.2155 33.0966C44.238 33.9519 44.2718 34.7059 44.3168 35.3586C44.1592 35.3135 43.8329 35.291 43.3378 35.291C42.8651 35.2685 42.3024 35.246 41.6498 35.2235C40.9971 35.201 40.3444 35.1898 39.6917 35.1898C39.039 35.1898 38.4538 35.1898 37.9362 35.1898H26.7278V34.4808L40.4006 18.0059ZM40.9408 18.0059V40.7602H36.2144V23.5763L40.4006 18.0059H40.9408Z" fill="white"/>
</svg>
